PathFileType	4	(X/Y/Z)
DataRate	CameraRate	NumFrames	NumMarkers	Units	OrigDataRate	OrigDataStartFrame	OrigNumFrames	
	120.0	120.0	8	39	mm	120.0	57	225
Frame#	Time	midhip	hip_r	hip_l	knee_r	knee_l	ankle_r	ankle_l	midasis	asis_r	asis_l	psis_r	psis_l	epicondLat_r	epicondLat_l	epicondMed_r	epicondMed_l	malleolusLat_r	malleolusLat_l	malleolusMedv_r	malleolusMedv_l	heel_r	heel_l	sternalnotch	xyphoidprocess	neck	subclavicle_r	subclavicle_l	toe_r	toe_l	thighwand_r	thighwand_l	upperleg1_r	upperleg1_l	upperleg2_r	upperleg2_l	shankwand_r	shankwand_l	lowerleg1_r	lowerleg1_l
	X1	Y1	Z1	X2	Y2	Z2	X3	Y3	Z3	X4	Y4	Z4	X5	Y5	Z5	X6	Y6	Z6	X7	Y7	Z7	X8	Y8	Z8	X9	Y9	Z9	X10	Y10	Z10	X11	Y11	Z11	X12	Y12	Z12	X13	Y13	Z13	X14	Y14	Z14	X15	Y15	Z15	X16	Y16	Z16	X17	Y17	Z17	X18	Y18	Z18	X19	Y19	Z19	X20	Y20	Z20	X21	Y21	Z21	X22	Y22	Z22	X23	Y23	Z23	X24	Y24	Z24	X25	Y25	Z25	X26	Y26	Z26	X27	Y27	Z27	X28	Y28	Z28	X29	Y29	Z29	X30	Y30	Z30	X31	Y31	Z31	X32	Y32	Z32	X33	Y33	Z33	X34	Y34	Z34	X35	Y35	Z35	X36	Y36	Z36	X37	Y37	Z37	X38	Y38	Z38	X39	Y39	Z39

	57	0.47500	714.930	910.351	-273.804	713.573	891.476	-224.859	711.658	893.389	-331.394	703.850	479.327	-200.811	711.241	481.457	-361.583	625.090	69.931	-179.348	655.956	68.606	-357.614	781.835	996.278	-277.507	783.748	994.367	-171.123	779.922	998.188	-383.890	578.740	1002.743	-230.346	575.670	1004.796	-318.451	716.250	482.425	-142.701	716.214	485.786	-420.717	690.930	500.423	-259.324	700.898	489.964	-314.150	623.177	72.285	-141.469	652.124	68.741	-396.927	622.068	70.228	-209.864	663.907	75.040	-328.327	580.478	45.753	-190.381	609.483	45.485	-355.880	693.247	1392.822	-281.552	738.933	1193.061	-286.424	603.274	1460.384	-288.845	706.732	1393.023	-200.118	704.602	1391.079	-355.383	745.508	42.750	-183.169	783.546	42.132	-372.683	755.347	601.726	-70.161	857.589	625.749	-361.566	766.552	659.364	-143.512	781.736	684.536	-398.350	762.976	577.409	-163.938	772.932	598.313	-400.086	653.764	144.000	-78.094	771.269	170.369	-356.190	645.246	202.258	-140.862	706.924	224.608	-364.752
	58	0.48333	714.832	910.352	-273.709	713.511	891.537	-224.801	711.621	893.435	-331.337	703.798	479.389	-200.784	711.235	481.493	-361.557	624.982	69.969	-179.334	655.899	68.629	-357.600	781.730	996.368	-277.446	783.617	994.473	-171.056	779.842	998.264	-383.836	578.609	1002.728	-230.325	575.578	1004.774	-318.416	716.183	482.484	-142.670	716.220	485.826	-420.690	690.788	500.556	-259.252	700.833	490.160	-314.186	623.060	72.324	-141.456	652.075	68.764	-396.914	621.952	70.318	-209.868	663.743	75.135	-328.315	580.479	45.720	-190.376	609.476	45.484	-355.878	693.384	1393.022	-281.479	739.634	1193.390	-286.325	603.146	1460.340	-288.833	707.134	1393.335	-200.100	704.504	1391.247	-355.334	745.481	42.798	-183.163	783.507	42.169	-372.678	755.237	601.764	-70.124	857.553	625.847	-361.505	766.439	659.486	-143.470	781.755	684.749	-398.311	762.855	577.560	-163.881	772.932	598.490	-400.067	653.694	144.032	-78.078	771.267	170.434	-356.163	644.816	202.378	-140.812	707.133	224.806	-364.787
	59	0.49167	714.730	910.362	-273.618	713.445	891.604	-224.750	711.581	893.486	-331.287	703.750	479.449	-200.763	711.243	481.549	-361.533	624.898	70.030	-179.316	655.859	68.668	-357.594	781.629	996.459	-277.392	783.491	994.579	-170.993	779.767	998.339	-383.790	578.482	1002.731	-230.303	575.484	1004.766	-318.380	716.121	482.541	-142.646	716.233	485.886	-420.664	690.592	500.726	-259.220	700.688	490.379	-314.186	622.968	72.386	-141.439	652.040	68.805	-396.908	621.816	70.441	-209.862	663.604	75.218	-328.303	580.476	45.715	-190.366	609.469	45.499	-355.882	693.050	1393.159	-281.420	739.370	1193.540	-286.148	603.006	1460.334	-288.811	706.532	1393.461	-199.923	704.413	1391.399	-355.310	745.455	42.846	-183.159	783.471	42.216	-372.676	755.134	601.817	-70.088	857.515	625.948	-361.449	766.347	659.609	-143.447	781.777	684.940	-398.291	762.721	577.695	-163.861	772.892	598.623	-400.045	653.627	144.074	-78.068	771.249	170.496	-356.146	644.468	202.520	-140.774	707.236	224.964	-364.814
	60	0.50000	714.640	910.398	-273.532	713.373	891.660	-224.706	711.532	893.530	-331.244	703.696	479.492	-200.740	711.268	481.612	-361.504	624.857	70.098	-179.293	655.848	68.711	-357.591	781.537	996.530	-277.344	783.375	994.662	-170.938	779.699	998.397	-383.750	578.361	1002.747	-230.279	575.389	1004.767	-318.343	716.061	482.581	-142.621	716.258	485.953	-420.635	690.474	500.826	-259.213	700.623	490.491	-314.143	622.923	72.455	-141.416	652.031	68.850	-396.906	621.840	70.496	-209.861	663.534	75.265	-328.299	580.468	45.739	-190.354	609.466	45.523	-355.885	692.799	1393.251	-281.413	739.183	1193.645	-286.058	602.836	1460.351	-288.792	706.103	1393.551	-199.847	704.322	1391.500	-355.319	745.437	42.881	-183.156	783.448	42.260	-372.673	755.051	601.873	-70.055	857.480	626.031	-361.398	766.283	659.676	-143.436	781.753	685.044	-398.259	762.631	577.772	-163.852	772.852	598.700	-400.004	653.578	144.114	-78.064	771.228	170.533	-356.132	644.283	202.611	-140.755	707.106	225.088	-364.798
	61	0.50833	714.583	910.482	-273.453	713.287	891.695	-224.669	711.472	893.556	-331.207	703.637	479.512	-200.711	711.307	481.670	-361.467	624.861	70.157	-179.266	655.870	68.745	-357.589	781.452	996.569	-277.300	783.265	994.710	-170.888	779.638	998.427	-383.712	578.248	1002.772	-230.254	575.295	1004.773	-318.304	716.005	482.601	-142.593	716.291	486.012	-420.599	690.431	500.845	-259.233	700.574	490.548	-314.074	622.929	72.513	-141.388	652.050	68.888	-396.903	621.907	70.495	-209.881	663.564	75.288	-328.307	580.460	45.782	-190.341	609.469	45.547	-355.884	691.838	1393.275	-281.486	737.617	1193.520	-285.705	602.669	1460.369	-288.788	704.176	1393.484	-199.682	704.231	1391.528	-355.338	745.432	42.899	-183.149	783.445	42.293	-372.664	754.993	601.921	-70.023	857.454	626.083	-361.350	766.238	659.682	-143.437	781.747	685.067	-398.231	762.583	577.780	-163.859	772.831	598.722	-399.956	653.556	144.142	-78.060	771.211	170.538	-356.115	644.237	202.627	-140.764	707.027	225.130	-364.791
	62	0.51667	714.523	910.558	-273.386	713.189	891.710	-224.642	711.402	893.565	-331.181	703.580	479.510	-200.677	711.350	481.715	-361.424	624.904	70.194	-179.240	655.917	68.764	-357.587	781.371	996.578	-277.260	783.156	994.725	-170.840	779.586	998.431	-383.680	578.144	1002.799	-230.228	575.199	1004.780	-318.266	715.955	482.601	-142.560	716.323	486.057	-420.557	690.389	500.830	-259.253	700.529	490.554	-314.015	622.976	72.548	-141.362	652.092	68.912	-396.901	621.947	70.465	-209.885	663.687	75.289	-328.303	580.456	45.829	-190.331	609.475	45.568	-355.882	691.925	1393.302	-281.461	737.881	1193.585	-285.555	602.532	1460.397	-288.773	704.463	1393.620	-199.699	704.139	1391.479	-355.329	745.440	42.900	-183.136	783.463	42.309	-372.652	754.959	601.954	-69.995	857.433	626.107	-361.307	766.223	659.649	-143.443	781.770	685.038	-398.209	762.550	577.740	-163.870	772.831	598.678	-399.911	653.560	144.153	-78.056	771.197	170.514	-356.096	644.333	202.569	-140.785	707.038	225.040	-364.789
	63	0.52500	714.438	910.588	-273.338	713.084	891.708	-224.622	711.325	893.561	-331.161	703.537	479.493	-200.646	711.385	481.746	-361.378	624.969	70.205	-179.224	655.975	68.769	-357.589	781.291	996.568	-277.224	783.048	994.717	-170.795	779.534	998.419	-383.653	578.049	1002.821	-230.202	575.101	1004.781	-318.229	715.917	482.586	-142.530	716.342	486.086	-420.512	690.325	500.776	-259.194	700.644	490.384	-313.949	623.043	72.558	-141.345	652.141	68.922	-396.902	622.006	70.428	-209.867	663.842	75.273	-328.281	580.455	45.869	-190.325	609.482	45.580	-355.882	691.805	1393.149	-281.427	737.513	1193.380	-285.722	602.396	1460.431	-288.722	704.321	1393.365	-199.685	704.036	1391.390	-355.271	745.454	42.889	-183.122	783.488	42.306	-372.642	754.941	601.972	-69.973	857.412	626.112	-361.271	766.168	659.593	-143.390	781.707	684.942	-398.130	762.501	577.687	-163.824	772.836	598.586	-399.846	653.580	144.148	-78.050	771.191	170.474	-356.073	644.571	202.469	-140.796	707.017	224.886	-364.719
	64	0.53333	714.357	910.612	-273.310	712.977	891.699	-224.601	711.240	893.553	-331.141	703.508	479.470	-200.622	711.395	481.759	-361.333	625.036	70.195	-179.216	656.022	68.764	-357.592	781.204	996.553	-277.189	782.939	994.701	-170.752	779.470	998.404	-383.627	577.960	1002.831	-230.175	574.999	1004.776	-318.190	715.886	482.567	-142.506	716.339	486.097	-420.468	690.235	500.712	-259.101	700.793	490.186	-313.844	623.108	72.545	-141.338	652.181	68.923	-396.905	622.049	70.406	-209.854	663.953	75.243	-328.268	580.454	45.893	-190.326	609.490	45.582	-355.880	691.672	1393.205	-281.275	737.422	1193.438	-285.206	602.270	1460.446	-288.661	704.150	1393.564	-199.466	703.938	1391.321	-355.172	745.469	42.870	-183.110	783.506	42.295	-372.637	754.932	601.976	-69.958	857.385	626.110	-361.247	766.053	659.540	-143.286	781.588	684.835	-398.023	762.427	577.628	-163.753	772.807	598.512	-399.761	653.601	144.134	-78.043	771.200	170.434	-356.048	644.844	202.392	-140.798	706.967	224.753	-364.622
